<?xml version="1.0" encoding="us-ascii" standalone="no"?><svg xmlns="http://www.w3.org/2000/svg" xmlns:xlink="http://www.w3.org/1999/xlink" contentStyleType="text/css" height="849px" preserveAspectRatio="none" style="width:688px;height:849px;background:#FFFFFF;" version="1.1" viewBox="0 0 688 849" width="688px" zoomAndPan="magnify"><defs/><g><!--cluster open-car2x Repository--><g id="cluster_open-car2x Repository"><rect fill="none" height="798" rx="2.5" ry="2.5" style="stroke:#181818;stroke-width:1.0;" width="640" x="7" y="45.6699"/><rect fill="none" height="10" style="stroke:#181818;stroke-width:1.0;" width="15" x="627" y="50.6699"/><rect fill="none" height="2" style="stroke:#181818;stroke-width:1.0;" width="4" x="625" y="52.6699"/><rect fill="none" height="2" style="stroke:#181818;stroke-width:1.0;" width="4" x="625" y="56.6699"/><text fill="#000000" font-family="sans-serif" font-size="14" font-weight="bold" lengthAdjust="spacing" textLength="156" x="249" y="73.6358">open-car2x Repository</text></g><text fill="#000000" font-family="sans-serif" font-size="14" lengthAdjust="spacing" textLength="36" x="199" y="23.5679">C-API</text><rect fill="#F1F1F1" height="12" style="stroke:#181818;stroke-width:1.5;" width="12" x="211" y="39.6699"/><text fill="#000000" font-family="sans-serif" font-size="14" lengthAdjust="spacing" textLength="26" x="291" y="23.5679">APK</text><rect fill="#F1F1F1" height="12" style="stroke:#181818;stroke-width:1.5;" width="12" x="298" y="39.6699"/><text fill="#000000" font-family="sans-serif" font-size="14" lengthAdjust="spacing" textLength="22" x="505" y="23.5679">JAR</text><rect fill="#F1F1F1" height="12" style="stroke:#181818;stroke-width:1.5;" width="12" x="510" y="39.6699"/><!--entity libconnector--><g id="elem_libconnector"><rect fill="#FFDDAA" height="49.0679" rx="2.5" ry="2.5" style="stroke:#181818;stroke-width:0.5;" width="124" x="262" y="560.6699"/><rect fill="#FFDDAA" height="10" style="stroke:#181818;stroke-width:0.5;" width="15" x="366" y="565.6699"/><rect fill="#FFDDAA" height="2" style="stroke:#181818;stroke-width:0.5;" width="4" x="364" y="567.6699"/><rect fill="#FFDDAA" height="2" style="stroke:#181818;stroke-width:0.5;" width="4" x="364" y="571.6699"/><text fill="#000000" font-family="sans-serif" font-size="14" lengthAdjust="spacing" textLength="84" x="277" y="595.6358">libconnector</text></g><!--entity libconnector-jni--><g id="elem_libconnector-jni"><rect fill="#FFCAAA" height="49.0679" rx="2.5" ry="2.5" style="stroke:#181818;stroke-width:0.5;" width="146" x="251" y="451.6699"/><rect fill="#FFCAAA" height="10" style="stroke:#181818;stroke-width:0.5;" width="15" x="377" y="456.6699"/><rect fill="#FFCAAA" height="2" style="stroke:#181818;stroke-width:0.5;" width="4" x="375" y="458.6699"/><rect fill="#FFCAAA" height="2" style="stroke:#181818;stroke-width:0.5;" width="4" x="375" y="462.6699"/><text fill="#000000" font-family="sans-serif" font-size="14" lengthAdjust="spacing" textLength="106" x="266" y="486.6358">libconnector-jni</text></g><!--entity libconnector-java--><g id="elem_libconnector-java"><rect fill="#FFAABA" height="49.0679" rx="2.5" ry="2.5" style="stroke:#181818;stroke-width:0.5;" width="156" x="246" y="342.6699"/><rect fill="#FFAABA" height="10" style="stroke:#181818;stroke-width:0.5;" width="15" x="382" y="347.6699"/><rect fill="#FFAABA" height="2" style="stroke:#181818;stroke-width:0.5;" width="4" x="380" y="349.6699"/><rect fill="#FFAABA" height="2" style="stroke:#181818;stroke-width:0.5;" width="4" x="380" y="353.6699"/><text fill="#000000" font-family="sans-serif" font-size="14" lengthAdjust="spacing" textLength="116" x="261" y="377.6358">libconnector-java</text></g><!--entity libconnector-android--><g id="elem_libconnector-android"><rect fill="#FFAAAA" height="49.0679" rx="2.5" ry="2.5" style="stroke:#181818;stroke-width:0.5;" width="182" x="213" y="233.6699"/><rect fill="#FFAAAA" height="10" style="stroke:#181818;stroke-width:0.5;" width="15" x="375" y="238.6699"/><rect fill="#FFAAAA" height="2" style="stroke:#181818;stroke-width:0.5;" width="4" x="373" y="240.6699"/><rect fill="#FFAAAA" height="2" style="stroke:#181818;stroke-width:0.5;" width="4" x="373" y="244.6699"/><text fill="#000000" font-family="sans-serif" font-size="14" lengthAdjust="spacing" textLength="142" x="228" y="268.6358">libconnector-android</text></g><!--entity common-build-info--><g id="elem_common-build-info"><rect fill="#DAFFDA" height="49.0679" rx="2.5" ry="2.5" style="stroke:#181818;stroke-width:0.5;" width="169" x="22.5" y="669.6699"/><rect fill="#DAFFDA" height="10" style="stroke:#181818;stroke-width:0.5;" width="15" x="171.5" y="674.6699"/><rect fill="#DAFFDA" height="2" style="stroke:#181818;stroke-width:0.5;" width="4" x="169.5" y="676.6699"/><rect fill="#DAFFDA" height="2" style="stroke:#181818;stroke-width:0.5;" width="4" x="169.5" y="680.6699"/><text fill="#000000" font-family="sans-serif" font-size="14" lengthAdjust="spacing" textLength="129" x="37.5" y="704.6358">common-build-info</text></g><!--entity common-edge--><g id="elem_common-edge"><rect fill="#FADAFF" height="49.0679" rx="2.5" ry="2.5" style="stroke:#181818;stroke-width:0.5;" width="137" x="456.5" y="669.6699"/><rect fill="#FADAFF" height="10" style="stroke:#181818;stroke-width:0.5;" width="15" x="573.5" y="674.6699"/><rect fill="#FADAFF" height="2" style="stroke:#181818;stroke-width:0.5;" width="4" x="571.5" y="676.6699"/><rect fill="#FADAFF" height="2" style="stroke:#181818;stroke-width:0.5;" width="4" x="571.5" y="680.6699"/><text fill="#000000" font-family="sans-serif" font-size="14" lengthAdjust="spacing" textLength="97" x="471.5" y="704.6358">common-edge</text></g><!--entity common-log-build-info--><g id="elem_common-log-build-info"><rect fill="#DADAFF" height="49.0679" rx="2.5" ry="2.5" style="stroke:#181818;stroke-width:0.5;" width="195" x="226.5" y="669.6699"/><rect fill="#DADAFF" height="10" style="stroke:#181818;stroke-width:0.5;" width="15" x="401.5" y="674.6699"/><rect fill="#DADAFF" height="2" style="stroke:#181818;stroke-width:0.5;" width="4" x="399.5" y="676.6699"/><rect fill="#DADAFF" height="2" style="stroke:#181818;stroke-width:0.5;" width="4" x="399.5" y="680.6699"/><text fill="#000000" font-family="sans-serif" font-size="14" lengthAdjust="spacing" textLength="155" x="241.5" y="704.6358">common-log-build-info</text></g><!--entity common-*--><g id="elem_common-*"><rect fill="#F1F1F1" height="49.0679" rx="2.5" ry="2.5" style="stroke:#181818;stroke-width:0.5;" width="111" x="296.5" y="778.6699"/><rect fill="#F1F1F1" height="10" style="stroke:#181818;stroke-width:0.5;" width="15" x="387.5" y="783.6699"/><rect fill="#F1F1F1" height="2" style="stroke:#181818;stroke-width:0.5;" width="4" x="385.5" y="785.6699"/><rect fill="#F1F1F1" height="2" style="stroke:#181818;stroke-width:0.5;" width="4" x="385.5" y="789.6699"/><text fill="#000000" font-family="sans-serif" font-size="14" lengthAdjust="spacing" textLength="71" x="311.5" y="813.6358">common-*</text></g><!--entity messages--><g id="elem_messages"><rect fill="#FFEEBB" height="49.0679" rx="2.5" ry="2.5" style="stroke:#181818;stroke-width:0.5;" width="107" x="497.5" y="778.6699"/><rect fill="#FFEEBB" height="10" style="stroke:#181818;stroke-width:0.5;" width="15" x="584.5" y="783.6699"/><rect fill="#FFEEBB" height="2" style="stroke:#181818;stroke-width:0.5;" width="4" x="582.5" y="785.6699"/><rect fill="#FFEEBB" height="2" style="stroke:#181818;stroke-width:0.5;" width="4" x="582.5" y="789.6699"/><text fill="#000000" font-family="sans-serif" font-size="14" lengthAdjust="spacing" textLength="67" x="512.5" y="813.6358">messages</text></g><!--link cpi to libconnector--><g id="link_cpi_libconnector"><path d="M214.12,51.7699 C204.95,68.5099 177,123.5599 177,172.6699 C177,172.6699 177,172.6699 177,368.1699 C177,447.8699 246.24,519.9099 289.68,557.2699 " fill="none" id="cpi-to-libconnector" style="stroke:#181818;stroke-width:1.0;"/><polygon fill="#181818" points="293.54,560.5599,289.2741,551.6828,289.7307,557.3212,284.0923,557.7778,293.54,560.5599" style="stroke:#181818;stroke-width:1.0;"/></g><!--link jar to libconnector-java--><g id="link_jar_libconnector-java"><path d="M522.06,51.9499 C552.13,78.7499 681.34,201.6299 620,282.6699 C594.26,316.6699 485.39,340.7499 407.16,354.0499 " fill="none" id="jar-to-libconnector-java" style="stroke:#181818;stroke-width:1.0;"/><polygon fill="#181818" points="402.05,354.9099,411.5886,357.3624,406.9808,354.081,410.2623,349.4731,402.05,354.9099" style="stroke:#181818;stroke-width:1.0;"/></g><!--link apk to libconnector-android--><g id="link_apk_libconnector-android"><path d="M304,51.8699 C304,75.9899 304,177.8499 304,228.4299 " fill="none" id="apk-to-libconnector-android" style="stroke:#181818;stroke-width:1.0;"/><polygon fill="#181818" points="304,233.4599,308,224.4599,304,228.4599,300,224.4599,304,233.4599" style="stroke:#181818;stroke-width:1.0;"/></g><!--link libconnector to common-build-info--><g id="link_libconnector_common-build-info"><path d="M276.11,609.7799 C241.59,626.8099 195.02,649.7699 159.48,667.2899 " fill="none" id="libconnector-to-common-build-info" style="stroke:#181818;stroke-width:1.0;"/><polygon fill="#181818" points="154.77,669.6199,164.6103,669.2105,159.2507,667.401,161.0601,662.0414,154.77,669.6199" style="stroke:#181818;stroke-width:1.0;"/></g><!--link libconnector to common-edge--><g id="link_libconnector_common-edge"><path d="M368.61,609.9199 C400.36,626.8199 443.01,649.5299 475.76,666.9599 " fill="none" id="libconnector-to-common-edge" style="stroke:#181818;stroke-width:1.0;"/><polygon fill="#181818" points="480.52,669.4899,474.4756,661.714,476.1126,667.1288,470.6978,668.7658,480.52,669.4899" style="stroke:#181818;stroke-width:1.0;"/></g><!--link libconnector to common-log-build-info--><g id="link_libconnector_common-log-build-info"><path d="M324,609.9199 C324,625.9899 324,647.3099 324,664.3499 " fill="none" id="libconnector-to-common-log-build-info" style="stroke:#181818;stroke-width:1.0;"/><polygon fill="#181818" points="324,669.4899,328,660.4899,324,664.4899,320,660.4899,324,669.4899" style="stroke:#181818;stroke-width:1.0;"/></g><!--link libconnector to messages--><g id="link_libconnector_messages"><path d="M386.12,595.4299 C462.11,608.1799 584.02,633.7199 611,669.6699 C635.52,702.3399 605.1,746.6099 579.39,774.7899 " fill="none" id="libconnector-to-messages" style="stroke:#181818;stroke-width:1.0;"/><polygon fill="#181818" points="575.95,778.4899,585,774.6044,579.3473,774.8214,579.1304,769.1687,575.95,778.4899" style="stroke:#181818;stroke-width:1.0;"/></g><!--link libconnector-jni to libconnector--><g id="link_libconnector-jni_libconnector"><path d="M324,500.9199 C324,516.9899 324,538.3099 324,555.3499 " fill="none" id="libconnector-jni-to-libconnector" style="stroke:#181818;stroke-width:1.0;"/><polygon fill="#181818" points="324,560.4899,328,551.4899,324,555.4899,320,551.4899,324,560.4899" style="stroke:#181818;stroke-width:1.0;"/></g><!--link libconnector-java to libconnector-jni--><g id="link_libconnector-java_libconnector-jni"><path d="M324,391.9199 C324,407.9899 324,429.3099 324,446.3499 " fill="none" id="libconnector-java-to-libconnector-jni" style="stroke:#181818;stroke-width:1.0;"/><polygon fill="#181818" points="324,451.4899,328,442.4899,324,446.4899,320,442.4899,324,451.4899" style="stroke:#181818;stroke-width:1.0;"/></g><!--link libconnector-android to libconnector-java--><g id="link_libconnector-android_libconnector-java"><path d="M308.44,282.9199 C311.44,298.9899 315.43,320.3099 318.61,337.3499 " fill="none" id="libconnector-android-to-libconnector-java" style="stroke:#181818;stroke-width:1.0;"/><polygon fill="#181818" points="319.57,342.4899,321.8345,332.9049,318.6443,337.5763,313.9728,334.3861,319.57,342.4899" style="stroke:#181818;stroke-width:1.0;"/></g><!--link common-edge to messages--><g id="link_common-edge_messages"><path d="M530.77,718.9199 C534.67,734.9899 539.86,756.3099 544,773.3499 " fill="none" id="common-edge-to-messages" style="stroke:#181818;stroke-width:1.0;"/><polygon fill="#181818" points="545.25,778.4899,547.0349,768.8041,544.081,773.6285,539.2566,770.6746,545.25,778.4899" style="stroke:#181818;stroke-width:1.0;"/></g><!--link common-edge to common-*--><g id="link_common-edge_common-*"><path d="M486.61,718.9199 C459.39,735.7499 422.87,758.3399 394.73,775.7399 " fill="none" id="common-edge-to-common-*" style="stroke:#181818;stroke-width:1.0;"/><polygon fill="#181818" points="390.29,778.4899,400.0493,777.165,394.5444,775.863,395.8464,770.3581,390.29,778.4899" style="stroke:#181818;stroke-width:1.0;"/></g><!--link common-log-build-info to common-*--><g id="link_common-log-build-info_common-*"><path d="M330.21,718.9199 C334.42,734.9899 340,756.3099 344.46,773.3499 " fill="none" id="common-log-build-info-to-common-*" style="stroke:#181818;stroke-width:1.0;"/><polygon fill="#181818" points="345.8,778.4899,347.3835,768.7692,344.5303,773.6538,339.6457,770.8006,345.8,778.4899" style="stroke:#181818;stroke-width:1.0;"/></g></g></svg>